<?xml version="1.0" standalone="no"?>
<!DOCTYPE svg PUBLIC "-//W3C//DTD SVG 1.1//EN" "http://www.w3.org/Graphics/SVG/1.1/DTD/svg11.dtd" >
<svg xmlns="http://www.w3.org/2000/svg">
<metadata></metadata>
<defs>
<font id="fipps_filledregular" horiz-adv-x="2048" >
<font-face units-per-em="2048" ascent="1638" descent="-410" />
<missing-glyph horiz-adv-x="1024" />
<glyph />
<glyph />
<glyph unicode="&#xd;" />
<glyph />
<glyph />
<glyph unicode=" "  horiz-adv-x="1024" />
<glyph unicode="&#x09;" horiz-adv-x="1024" />
<glyph unicode="&#xa0;" horiz-adv-x="1024" />
<glyph unicode="!" horiz-adv-x="1024" d="M0 256v2048h256v256h512v-256h256v-2304h-768v256h-256z" />
<glyph unicode="&#x22;" horiz-adv-x="1536" d="M0 1536v768h256v256h1024v-256h256v-1024h-1280v256h-256z" />
<glyph unicode="#" d="M0 512v1024h256v256h256v256h1024v-256h256v-256h256v-1024h-256v-256h-256v-256h-1024v256h-256v256h-256z" />
<glyph unicode="$" d="M0 256v512h256v256h-256v1024h256v256h256v256h256v256h512v-256h512v-256h256v-768h-256v-256h256v-1024h-256v-256h-512v-256h-512v256h-512v256h-256z" />
<glyph unicode="%" horiz-adv-x="3840" d="M0 1536v1024h256v256h1024v-256h256v-512h256v512h256v256h512v-256h256v-768h-256v-256h1024v-256h256v-1024h-256v-256h-1024v256h-256v512h-256v-768h-768v256h-256v768h256v256h-1024v256h-256z" />
<glyph unicode="&#x26;" d="M0 512v1536h256v256h256v256h768v-256h256v-512h256v-256h256v-512h-256v-256h256v-768h-1536v256h-256v256h-256z" />
<glyph unicode="'" horiz-adv-x="1024" d="M0 1536v768h256v256h512v-256h256v-1024h-768v256h-256z" />
<glyph unicode="(" horiz-adv-x="1280" d="M0 512v1536h256v256h256v256h512v-256h256v-512h-256v-1024h256v-768h-768v256h-256v256h-256z" />
<glyph unicode=")" horiz-adv-x="1280" d="M0 256v512h256v1024h-256v512h256v256h512v-256h256v-256h256v-1536h-256v-256h-256v-256h-512v256h-256z" />
<glyph unicode="*" d="M0 512v1024h256v256h512v256h512v-256h512v-256h256v-1024h-256v-256h-256v-256h-768v256h-512v256h-256z" />
<glyph unicode="+" horiz-adv-x="1536" d="M0 1024v512h256v256h256v256h512v-256h256v-256h256v-512h-256v-256h-256v-256h-512v256h-256v256h-256z" />
<glyph unicode="," horiz-adv-x="1024" d="M-256 -256v512h256v512h256v256h512v-256h256v-768h-256v-256h-256v-256h-512v256h-256z" />
<glyph unicode="-" horiz-adv-x="1536" d="M0 1024v512h256v256h1024v-256h256v-768h-1280v256h-256z" />
<glyph unicode="." horiz-adv-x="1024" d="M0 256v512h256v256h512v-256h256v-768h-768v256h-256z" />
<glyph unicode="/" horiz-adv-x="1792" d="M0 256v768h256v512h256v512h256v512h256v256h512v-256h256v-768h-256v-512h-256v-512h-256v-512v-256h-256h-512v256h-256z" />
<glyph unicode="0" d="M0 512v1536h256v256h256v256h1024v-256h256v-256h256v-1792h-256v-256h-1280v256h-256v256h-256z" />
<glyph unicode="1" horiz-adv-x="1280" d="M0 1536v512h256v256h256v256h512v-256h256v-2304h-768v256h-256v1280h-256z" />
<glyph unicode="2" d="M0 256v768h256v256h256v512h-512v512h256v256h1280v-256h256v-256h256v-512h-256v-256h-256v-256h256v-256h256v-768h-1792v256h-256z" />
<glyph unicode="3" d="M0 256v512h256v256h256v512h-256v256h-256v512h256v256h1280v-256h256v-256h256v-512h-256v-256h256v-768h-256v-256h-256v-256h-1280v256h-256z" />
<glyph unicode="4" d="M0 1024v1280h256v256h512v-256h512v256h512v-256h256v-2304h-768v256h-256v512h-768v256h-256z" />
<glyph unicode="5" d="M0 256v512h256v256h-256v1536h1792v-256h256v-512h-512v-256h256v-256h256v-768h-256v-256h-256v-256h-1280v256h-256z" />
<glyph unicode="6" d="M0 512v1536h256v256h256v256h1024v-256h256v-512h-512v-256h512v-256h256v-768h-256v-256h-256v-256h-1024v256h-256v256h-256z" />
<glyph unicode="7" horiz-adv-x="1792" d="M-256 1792v512h256v256h1536v-256h256v-768h-256v-256h-256v-512h-256v-768h-768v256h-256v768h256v512h256v256h-768z" />
<glyph unicode="8" d="M0 512v1536h256v256h256v256h1024v-256h256v-256h256v-512h-256v-256h256v-768h-256v-256h-256v-256h-1024v256h-256v256h-256z" />
<glyph unicode="9" d="M0 1280v768h256v256h256v256h1024v-256h256v-256h256v-1536h-256v-256h-256v-256h-1024v256h-256v512h256v256h-256v256h-256z" />
<glyph unicode=":" horiz-adv-x="1024" d="M0 512v1024h256v256h512v-256h256v-1280h-768v256h-256z" />
<glyph unicode=";" horiz-adv-x="1024" d="M-256 -256v512h256v1024h256v256h512v-256h256v-1280h-256v-256h-256v-256h-512v256h-256z" />
<glyph unicode="&#x3c;" horiz-adv-x="1536" d="M0 768v512h256v256h256v256h256v256h512v-256h256v-512h-256v-512h256v-768h-768v256h-256v256h-256v256h-256z" />
<glyph unicode="=" horiz-adv-x="1536" d="M0 768v1024h256v256h1024v-256h256v-1280h-1280v256h-256z" />
<glyph unicode="&#x3e;" horiz-adv-x="1536" d="M0 256v512h256v512h-256v512h256v256h512v-256h256v-256h256v-256h256v-512h-256v-256h-256v-256h-256v-256h-512v256h-256z" />
<glyph unicode="?" horiz-adv-x="2304" d="M0 1536v512h256v256h256v256h1280v-256h256v-256h256v-768h-256v-256h-256v-1024h-768v256h-256v1024h-512v256h-256z" />
<glyph unicode="@" horiz-adv-x="2560" d="M0 512v1024h256v256h256v256h256v256h1280v-256h256v-256h256v-2048h-1792v256h-256v256h-256v256h-256z" />
<glyph unicode="A" d="M0 256v1792h256v256h256v256h1024v-256h256v-256h256v-2048h-768v256h-256v-256h-768v256h-256z" />
<glyph unicode="B" d="M0 256v2048h256v256h1280v-256h256v-256h256v-1792h-256v-256h-1536v256h-256z" />
<glyph unicode="C" d="M0 512v1536h256v256h256v256h1280v-256h256v-768h-768v-512h512v-256h256v-768h-1536v256h-256v256h-256z" />
<glyph unicode="D" d="M0 256v2048h256v256h1280v-256h256v-256h256v-1792h-256v-256h-1536v256h-256z" />
<glyph unicode="E" horiz-adv-x="1792" d="M0 256v2048h256v256h1280v-256h256v-512h-256v-256h256v-512h-256v-256h256v-768h-1536v256h-256z" />
<glyph unicode="F" horiz-adv-x="1792" d="M0 256v2048h256v256h1280v-256h256v-512h-256v-256h256v-768h-768v-768h-768v256h-256z" />
<glyph unicode="G" d="M0 512v1536h256v256h256v256h1280v-256h256v-2048h-256v-256h-1280v256h-256v256h-256z" />
<glyph unicode="H" d="M0 256v2048h256v256h512v-256h512v256h512v-256h256v-2304h-768v256h-256v-256h-768v256h-256z" />
<glyph unicode="I" horiz-adv-x="1024" d="M0 256v2048h256v256h512v-256h256v-2304h-768v256h-256z" />
<glyph unicode="J" d="M0 512v768h256v256h512v-256h256v1024h256v256h512v-256h256v-2048h-256v-256h-1280v256h-256v256h-256z" />
<glyph unicode="K" d="M0 256v2048h256v256h512v-256h512v256h512v-256h256v-2304h-768v256h-256v-256h-768v256h-256z" />
<glyph unicode="L" horiz-adv-x="1792" d="M0 256v2048h256v256h512v-256h256v-1280h512v-256h256v-768h-1536v256h-256z" />
<glyph unicode="M" horiz-adv-x="2560" d="M0 256v2048h256v256h512v-256h256v-256h512v256h256v256h512v-256h256v-2304h-768v256h-256v512h-512v-768h-768v256h-256z" />
<glyph unicode="N" d="M0 256v2048h256v256h512v-256h512v256h512v-256h256v-2304h-768v256h-256v-256h-768v256h-256z" />
<glyph unicode="O" d="M0 512v1536h256v256h256v256h1024v-256h256v-256h256v-1792h-256v-256h-1280v256h-256v256h-256z" />
<glyph unicode="P" d="M0 256v2048h256v256h1280v-256h256v-256h256v-768h-256v-256h-256v-256h-512v-768h-768v256h-256z" />
<glyph unicode="Q" d="M0 512v1536h256v256h256v256h1024v-256h256v-256h256v-1280h-256v-256h256v-768h-768v256h-768v256h-256v256h-256z" />
<glyph unicode="R" d="M0 256v2048h256v256h1280v-256h256v-256h256v-512h-256v-256h256v-1280h-768v256h-256v-256h-768v256h-256z" />
<glyph unicode="S" d="M0 256v512h256v512h-256v768h256v256h256v256h1280v-256h256v-768h-256v-256h256v-1024h-256v-256h-1536v256h-256z" />
<glyph unicode="T" d="M0 1792v512h256v256h1536v-256h256v-768h-512v-1536h-768v256h-256v1280h-256v256h-256z" />
<glyph unicode="U" d="M0 512v1792h256v256h512v-256h512v256h512v-256h256v-2048h-256v-256h-1280v256h-256v256h-256z" />
<glyph unicode="V" horiz-adv-x="2304" d="M0 1280v1024h256v256h512v-256h256v-512h256v512h256v256h512v-256h256v-1024h-256v-768h-256v-256h-256v-256h-768v256h-256v256h-256v768h-256z" />
<glyph unicode="W" horiz-adv-x="2560" d="M0 512v1792h256v256h512v-256h256v-768h512v768h256v256h512v-256h256v-2048h-256v-256h-768v256h-256v-256h-768v256h-256v256h-256z" />
<glyph unicode="X" horiz-adv-x="2304" d="M0 256v768h256v512h-256v768h256v256h512v-256h256v-256h256v256h256v256h512v-256h256v-768h-256v-512h256v-1024h-768v256h-256v256h-256v-256h-256v-256h-512v256h-256z" />
<glyph unicode="Y" horiz-adv-x="2560" d="M0 1536v768h256v256h512v-256h256v-256h256v-256h256v512h256v256h512v-256h256v-768h-256v-256h-256v-256h-256v-1024h-768v256h-256v768h-256v256h-256v256h-256z" />
<glyph unicode="Z" d="M0 256v768h256v256h256v512h-512v512h256v256h1536v-256h256v-768h-256v-256h-256v-256h256v-256h256v-768h-1792v256h-256z" />
<glyph unicode="[" horiz-adv-x="1280" d="M0 256v2304h1024v-256h256v-512h-256v-1024h256v-768h-1024v256h-256z" />
<glyph unicode="\" horiz-adv-x="1792" d="M0 1792v768h256v256h512v-256h256v-512h256v-512h256v-512h256v-768v-256h-256h-512v256h-256v512h-256v512h-256v512h-256z" />
<glyph unicode="]" horiz-adv-x="1280" d="M0 256v512h256v1024h-256v512h256v256h768v-256h256v-2304h-1024v256h-256z" />
<glyph unicode="^" horiz-adv-x="1536" d="M0 1536v512h256v256h256v256h512v-256h256v-256h256v-768h-1280v256h-256z" />
<glyph unicode="_" horiz-adv-x="1792" d="M0 256v512h256v256h1280v-256h256v-768h-1536v256h-256z" />
<glyph unicode="`" horiz-adv-x="1280" d="M0 1792v512h256v256h512v-256h256v-256h256v-768h-768v256h-256v256h-256z" />
<glyph unicode="a" d="M0 512v512h256v256h256v256h-256v256h256v256h1280v-256h256v-1792h-1536v256h-256v256h-256z" />
<glyph unicode="b" d="M0 256v2048h256v256h512v-256h512v-256h256v-256h256v-256h256v-1024h-256v-256h-256v-256h-1280v256h-256z" />
<glyph unicode="c" horiz-adv-x="1792" d="M0 512v1024h256v256h256v256h1024v-256h256v-512h-512v-256h256v-256h256v-768h-1280v256h-256v256h-256z" />
<glyph unicode="d" d="M0 512v1024h256v256h256v256h512v256h256v256h512v-256h256v-2304h-1536v256h-256v256h-256z" />
<glyph unicode="e" d="M0 512v1024h256v256h256v256h1024v-256h256v-256h256v-1536h-1536v256h-256v256h-256z" />
<glyph unicode="f" horiz-adv-x="1792" d="M0 1280v512h256v256h256v256h256v256h768v-256h256v-1024v-256h-256h-256v-1024h-768v256h-256v1024h-256z" />
<glyph unicode="g" d="M0 0h256v512h-256v1024h256v256h256v256h1280v-256h256v-2048h-256v-256h-256v-256h-1280v256h-256v512z" />
<glyph unicode="h" d="M0 256v2048h256v256h512v-256h256v-256h512v-256h256v-256h256v-1536h-768v256h-512v-256h-512v256h-256z" />
<glyph unicode="i" horiz-adv-x="1024" d="M0 256v2048h256v256h512v-256h256v-2304h-768v256h-256z" />
<glyph unicode="j" horiz-adv-x="1024" d="M-256 0h256v2304h256v256h512v-256h256v-2560h-256v-256h-256v-256h-512v256h-256v512z" />
<glyph unicode="k" d="M0 256v2048h256v256h512v-256h256v-256h256v256h512v-256h256v-512h-256v-512h256v-1024h-768v256h-512v-256h-512v256h-256z" />
<glyph unicode="l" horiz-adv-x="1024" d="M0 256v2048h256v256h512v-256h256v-2304h-768v256h-256z" />
<glyph unicode="m" horiz-adv-x="2560" d="M0 256v1536h256v256h1792v-256h256v-256h256v-1536h-768v256h-256v-256h-512v256h-256v-256h-512v256h-256z" />
<glyph unicode="n" d="M0 256v1536h256v256h1280v-256h256v-256h256v-1536h-768v256h-512v-256h-512v256h-256z" />
<glyph unicode="o" d="M0 512v1024h256v256h256v256h1024v-256h256v-256h256v-1024h-256v-256h-256v-256h-1024v256h-256v256h-256z" />
<glyph unicode="p" d="M0 -512v2304h256v256h1280v-256h256v-256h256v-1024h-256v-256h-512v-256h-256v-768h-768v256h-256z" />
<glyph unicode="q" d="M0 512v1024h256v256h256v256h1280v-256h256v-2560h-768v256h-256v512h-512v256h-256v256h-256z" />
<glyph unicode="r" horiz-adv-x="1536" d="M0 256v1280h256v256h256v256h768v-256h256v-512h-512v-1280h-768v256h-256z" />
<glyph unicode="s" d="M0 256v512h256v256h-256v512h256v256h256v256h1280v-256h256v-512h-256v-256h256v-512h-256v-256h-256v-256h-1280v256h-256z" />
<glyph unicode="t" horiz-adv-x="1536" d="M0 1280v512h256v512h256v256h512v-256h256v-512h256v-512h-256v-512h256v-768h-768v256h-256v256h-256v768h-256z" />
<glyph unicode="u" d="M0 512v1280h256v256h512v-256h512v256h512v-256h256v-1536h-256v-256h-1280v256h-256v256h-256z" />
<glyph unicode="v" d="M0 768v1024h256v256h512v-256h512v256h512v-256h256v-1024h-256v-256h-256v-256h-256v-256h-512v256h-256v256h-256v256h-256z" />
<glyph unicode="w" horiz-adv-x="2560" d="M0 512v1280h256v256h512v-256h1024v256h512v-256h256v-1280h-256v-256h-256v-256h-512v256h-512v-256h-512v256h-256v256h-256z" />
<glyph unicode="x" d="M0 256v512h256v512h-256v512h256v256h512v-256h512v256h512v-256h256v-512h-256v-512h256v-512h-256v-256h-512v256h-512v-256h-512v256h-256z" />
<glyph unicode="y" d="M0 512v1280h256v256h512v-256h512v256h512v-256h256v-2048h-256v-256h-256v-256h-1024v256h-256v512h256v256h-256v256h-256z" />
<glyph unicode="z" d="M0 256v768h256v256h-256v512h256v256h1536v-256h256v-512h-256v-512h256v-768h-1792v256h-256z" />
<glyph unicode="{" horiz-adv-x="1536" d="M0 1024v512h256v512h256v256h256v256h512v-256h256v-512h-256v-1024h256v-512v-256h-256h-512v256h-256v256h-256v512h-256z" />
<glyph unicode="|" horiz-adv-x="1024" d="M0 256v2304h256v256h512v-256h256v-2560h-768v256h-256z" />
<glyph unicode="}" horiz-adv-x="1536" d="M0 256v512h256v1024h-256v512h256v256h512v-256h256v-256h256v-512h256v-512h-256v-512h-256v-256h-256v-256h-512v256h-256z" />
<glyph unicode="~" horiz-adv-x="1792" d="M0 1536v512h256v256h256v256h1024v-256h256v-512h-256v-256h-256v-256h-1024v256h-256z" />
<glyph horiz-adv-x="1024" />
<glyph unicode="&#xa1;" horiz-adv-x="1024" d="M0 256v2048h256v256h512v-256h256v-2304h-768v256h-256z" />
<glyph unicode="&#xa2;" />
<glyph unicode="&#xa3;" />
<glyph unicode="&#xa4;" />
<glyph unicode="&#xa5;" />
<glyph unicode="&#xa6;" horiz-adv-x="1024" d="M0 256v2048h256v256h512v-256h256v-2304h-768v256h-256z" />
<glyph unicode="&#xa7;" />
<glyph unicode="&#xa8;" horiz-adv-x="1536" d="M0 1792v512h256v256h1024v-256h256v-768h-1280v256h-256z" />
<glyph unicode="&#xa9;" horiz-adv-x="1536" d="M0 1280v768h256v256h256v256h768v-256h256v-512h-256v-256h256v-512v-256h-256h-768v256h-256v256h-256z" />
<glyph unicode="&#xaa;" />
<glyph unicode="&#xab;" horiz-adv-x="1792" d="M0 512v512h256v256h256v256h1024v-256h256v-1024v-256h-256h-1024v256h-256v256h-256z" />
<glyph unicode="&#xac;" horiz-adv-x="1536" d="M0 1024v512h256v256h1024v-256h256v-768v-256h-256h-512v256h-512v256h-256z" />
<glyph unicode="&#xad;" horiz-adv-x="1536" d="M0 1024v512h256v256h1024v-256h256v-768h-1280v256h-256z" />
<glyph unicode="&#xae;" horiz-adv-x="1536" d="M0 1024v1280h256v256h1024v-256h256v-1280v-256h-256h-1024v256h-256z" />
<glyph unicode="&#xaf;" horiz-adv-x="1536" d="M0 1792v512h256v256h1024v-256h256v-768h-1280v256h-256z" />
<glyph unicode="&#xb0;" horiz-adv-x="1536" d="M0 1280v1024h256v256h1024v-256h256v-1024h-256v-256h-1024v256h-256z" />
<glyph unicode="&#xb1;" horiz-adv-x="1536" d="M0 256v1280h256v256h256v256h512v-256h256v-256h256v-1536h-1280v256h-256z" />
<glyph unicode="&#xb2;" horiz-adv-x="1280" d="M-256 1280v768h256v256h-256v512h256v256h768v-256h256v-256h256v-512h-256v-256h256v-768h-1280v256h-256z" />
<glyph unicode="&#xb3;" horiz-adv-x="1280" d="M-256 1280v512h256v512h-256v512h256v256h768v-256h256v-256h256v-1024h-256v-256h-256v-256h-768v256h-256z" />
<glyph unicode="&#xb4;" horiz-adv-x="1280" d="M0 1536v512h256v256h256v256h512v-256h256v-512h-256v-256h-256v-256h-512v256h-256z" />
<glyph unicode="&#xb5;" />
<glyph unicode="&#xb6;" d="M0 1024v1024h256v256h256v256h1280v-256h256v-2304h-1280v256h-256v512h-256v256h-256z" />
<glyph unicode="&#xb7;" horiz-adv-x="1024" d="M0 1024v512h256v256h512v-256h256v-768h-768v256h-256z" />
<glyph unicode="&#xb8;" d="M0 -256v512h256v256h256v256h512v-256h256v-512h-256v-256h-256v-256h-512v256h-256z" />
<glyph unicode="&#xb9;" horiz-adv-x="1024" d="M-256 2048v512h256v256h256v256h512v-256h256v-1792h-768v256h-256v768h-256z" />
<glyph unicode="&#xba;" />
<glyph unicode="&#xbb;" horiz-adv-x="1792" d="M0 256v1024h256v256h1024v-256h256v-256h256v-512h-256v-256h-256v-256h-1024v256h-256z" />
<glyph unicode="&#xbc;" horiz-adv-x="3328" d="M0 2048v512h256v256h256v256h512v-256h256v-256h256v256h512v-768h256v-256h256v256h512v-256h256v-1792h-768v256h-256v256h-512v256h-256v-768h-768v256h-256v1024h-256v768h-256z" />
<glyph unicode="&#xbd;" horiz-adv-x="3072" d="M0 2048v512h256v256h256v256h512v-256h256v-256h256v256h512v-256h256v-512h256v-256h256v-256h256v-512h-256v-256h256v-768h-1280v256h-256v-256h-768v256h-256v1024h-256v768h-256z" />
<glyph unicode="&#xbe;" horiz-adv-x="3584" d="M0 1280v512h256v512h-256v512h256v256h768v-256h256v-256h512v256h512v-768h256v-256h256v256h512v-256h256v-1792h-768v256h-256v256h-512v256h-256v-768h-768v256h-256v768h-512v256h-256z" />
<glyph unicode="&#xbf;" horiz-adv-x="2304" d="M0 512v768h256v256h256v768h256v256h512v-256h256v-768h-256v-512h256v256h512v-256h256v-512h-256v-256h-256v-256h-1280v256h-256v256h-256z" />
<glyph unicode="&#xc0;" d="M0 256v1792h256v256h256v256h-256v512h256v256h512v-256h256v-256h256v-512h256v-256h256v-2048h-768v256h-256v-256h-768v256h-256z" />
<glyph unicode="&#xc1;" d="M0 256v1792h256v256h256v512h256v256h256v256h512v-256h256v-512h-256v-256h256v-256h256v-2048h-768v256h-256v-256h-768v256h-256z" />
<glyph unicode="&#xc2;" d="M0 256v1792h256v768h256v256h256v256h512v-256h256v-256h256v-768h256v-2048h-768v256h-256v-256h-768v256h-256z" />
<glyph unicode="&#xc3;" d="M0 256v1792h256v768h256v256h256v256h1024v-256h256v-512h-256v-512h256v-2048h-768v256h-256v-256h-768v256h-256z" />
<glyph unicode="&#xc4;" d="M0 256v1792h256v768h256v256h1024v-256h256v-768h256v-2048h-768v256h-256v-256h-768v256h-256z" />
<glyph unicode="&#xc5;" d="M0 256v1792h256v256h256v256h-256v512h256v256h256v256h512v-256h256v-256h256v-512h-256v-256h256v-256h256v-2048h-768v256h-256v-256h-768v256h-256z" />
<glyph unicode="&#xc6;" horiz-adv-x="2816" d="M0 256v1792h256v256h256v256h768v-256h256v256h1024v-256h256v-2304h-1536v256h-256v-256h-768v256h-256z" />
<glyph unicode="&#xc7;" d="M0 512v1536h256v256h256v256h1280v-256h256v-768h-768v-512h512v-256h256v-768h-512v-256h-256v-256h-512v256h-256v512h-256v256h-256z" />
<glyph unicode="&#xc8;" horiz-adv-x="1792" d="M0 256v2048h256v768h256v256h512v-256h256v-256h256v-512h256v-512h-256v-256h256v-512h-256v-256h256v-768h-1536v256h-256z" />
<glyph unicode="&#xc9;" horiz-adv-x="1792" d="M0 256v2048h256v256h256v256h256v256h256v256h512v-256h256v-512h-256v-256h256v-512h-256v-256h256v-512h-256v-256h256v-768h-1536v256h-256z" />
<glyph unicode="&#xca;" horiz-adv-x="1792" d="M0 256v2048h256v512h256v256h256v256h512v-256h256v-256h256v-1024h-256v-256h256v-512h-256v-256h256v-768h-1536v256h-256z" />
<glyph unicode="&#xcb;" horiz-adv-x="1792" d="M0 256v2048h256v512h256v256h1024v-256h256v-1024h-256v-256h256v-512h-256v-256h256v-768h-1536v256h-256z" />
<glyph unicode="&#xcc;" horiz-adv-x="1024" d="M-256 2560v512h256v256h512v-256h256v-256h256v-2816h-768v256h-256v2304h-256z" />
<glyph unicode="&#xcd;" horiz-adv-x="1024" d="M0 256v2560h256v256h256v256h512v-256h256v-512h-256v-2560h-768v256h-256z" />
<glyph unicode="&#xce;" horiz-adv-x="1024" d="M-256 2304v512h256v256h256v256h512v-256h256v-256h256v-512h-256v-2304h-768v256h-256v2048h-256z" />
<glyph unicode="&#xcf;" horiz-adv-x="1024" d="M-256 2304v512h256v256h1024v-256h256v-512h-256v-2304h-768v256h-256v2048h-256z" />
<glyph unicode="&#xd1;" d="M0 256v2048h256v512h256v256h256v256h1024v-256h256v-512h-256v-256h256v-2304h-768v256h-256v-256h-768v256h-256z" />
<glyph unicode="&#xd2;" d="M0 512v1536h256v256h256v256h-256v512h256v256h512v-256h256v-256h256v-512h256v-256h256v-1792h-256v-256h-1280v256h-256v256h-256z" />
<glyph unicode="&#xd3;" d="M0 512v1536h256v256h256v512h256v256h256v256h512v-256h256v-512h-256v-256h256v-256h256v-1792h-256v-256h-1280v256h-256v256h-256z" />
<glyph unicode="&#xd4;" d="M0 512v1536h256v768h256v256h256v256h512v-256h256v-256h256v-768h256v-1792h-256v-256h-1280v256h-256v256h-256z" />
<glyph unicode="&#xd5;" d="M0 512v1792h256v512h256v256h256v256h1024v-256h256v-512h-256v-256h256v-2048h-256v-256h-1280v256h-256v256h-256z" />
<glyph unicode="&#xd6;" d="M0 512v1536h256v768h256v256h1024v-256h256v-768h256v-1792h-256v-256h-1280v256h-256v256h-256z" />
<glyph unicode="&#xd7;" horiz-adv-x="1536" d="M0 768v1024h256v256h1024v-256h256v-1280h-1280v256h-256z" />
<glyph unicode="&#xd8;" d="M0 512v1536h256v256h256v256h1024v-256h256v-256h256v-1792h-256v-256h-1280v256h-256v256h-256z" />
<glyph unicode="&#xd9;" d="M0 512v1792h256v768h256v256h512v-256h256v-256h256v-256h256v-256h256v-2048h-256v-256h-1280v256h-256v256h-256z" />
<glyph unicode="&#xda;" d="M0 512v1792h256v256h256v256h256v256h256v256h512v-256h256v-768h256v-2048h-256v-256h-1280v256h-256v256h-256z" />
<glyph unicode="&#xdb;" d="M0 512v1792h256v512h256v256h256v256h512v-256h256v-256h256v-512h256v-2048h-256v-256h-1280v256h-256v256h-256z" />
<glyph unicode="&#xdc;" d="M0 512v1792h256v512h256v256h1024v-256h256v-512h256v-2048h-256v-256h-1280v256h-256v256h-256z" />
<glyph unicode="&#xdd;" horiz-adv-x="2560" d="M0 1536v768h256v256h768v256h256v256h512v-256h256v-256h256v-256h256v-768h-256v-256h-256v-256h-256v-1024h-768v256h-256v768h-256v256h-256v256h-256z" />
<glyph unicode="&#xdf;" d="M0 -512v2560h256v256h256v256h1024v-256h256v-256h256v-512h-256v-256h256v-768h-256v-256h-256v-256h-512v-768h-768v256h-256z" />
<glyph unicode="&#xe0;" d="M0 512v512h256v256h256v256h-256v256h256v256h-256v512h256v256h512v-256h256v-256h256v-256h256v-256h256v-1792h-1536v256h-256v256h-256z" />
<glyph unicode="&#xe1;" d="M0 512v512h256v256h256v256h-256v256h256v512h256v256h256v256h512v-256h256v-768h256v-1792h-1536v256h-256v256h-256z" />
<glyph unicode="&#xe2;" d="M0 512v512h256v256h256v256h-256v768h256v256h256v256h512v-256h256v-256h256v-512h256v-1792h-1536v256h-256v256h-256z" />
<glyph unicode="&#xe3;" d="M0 512v512h256v256h256v256h-256v768h256v256h256v256h1024v-256h256v-512h-256v-256h256v-1792h-1536v256h-256v256h-256z" />
<glyph unicode="&#xe4;" d="M0 512v512h256v256h256v256h-256v768h256v256h1024v-256h256v-512h256v-1792h-1536v256h-256v256h-256z" />
<glyph unicode="&#xe5;" d="M0 512v512h256v256h256v256h-256v256h256v256h-256v512h256v256h256v256h512v-256h256v-256h256v-768h256v-1792h-1536v256h-256v256h-256z" />
<glyph unicode="&#xe6;" horiz-adv-x="3072" d="M0 512v512h256v256h256v256h-256v256h256v256h2048v-256h256v-256h256v-1536h-2560v256h-256v256h-256z" />
<glyph unicode="&#xe7;" horiz-adv-x="1792" d="M0 512v1024h256v256h256v256h1024v-256h256v-512h-512v-256h256v-256h256v-768h-512v-256h-256v-256h-512v256h-256v768h-256z" />
<glyph unicode="&#xe8;" d="M0 512v1024h256v256h256v256h-256v512h256v256h512v-256h256v-256h256v-512h256v-256h256v-1536h-1536v256h-256v256h-256z" />
<glyph unicode="&#xe9;" d="M0 512v1024h256v256h256v512h256v256h256v256h512v-256h256v-512h-256v-256h256v-256h256v-1536h-1536v256h-256v256h-256z" />
<glyph unicode="&#xea;" d="M0 512v1024h256v768h256v256h256v256h512v-256h256v-256h256v-768h256v-1536h-1536v256h-256v256h-256z" />
<glyph unicode="&#xeb;" d="M0 512v1024h256v768h256v256h1024v-256h256v-768h256v-1536h-1536v256h-256v256h-256z" />
<glyph unicode="&#xec;" horiz-adv-x="1024" d="M-256 2048v512h256v256h512v-256h256v-256h256v-2304h-768v256h-256v1792h-256z" />
<glyph unicode="&#xed;" horiz-adv-x="1024" d="M0 256v2048h256v256h256v256h512v-256h256v-512h-256v-2048h-768v256h-256z" />
<glyph unicode="&#xee;" horiz-adv-x="1024" d="M-256 1792v512h256v256h256v256h512v-256h256v-256h256v-512h-256v-1792h-768v256h-256v1536h-256z" />
<glyph unicode="&#xef;" horiz-adv-x="1024" d="M-256 1792v512h256v256h1024v-256h256v-512h-256v-1792h-768v256h-256v1536h-256z" />
<glyph unicode="&#xf1;" d="M0 256v1536h256v512h256v256h256v256h1024v-256h256v-512h-256v-512h256v-1280h-256v-256h-512v256h-512v-256h-512v256h-256z" />
<glyph unicode="&#xf2;" d="M0 512v1024h256v256h256v256h-256v512h256v256h512v-256h256v-256h256v-512h256v-256h256v-1024h-256v-256h-256v-256h-1024v256h-256v256h-256z" />
<glyph unicode="&#xf3;" d="M0 512v1024h256v256h256v512h256v256h256v256h512v-256h256v-512h-256v-256h256v-256h256v-1024h-256v-256h-256v-256h-1024v256h-256v256h-256z" />
<glyph unicode="&#xf4;" d="M0 512v1024h256v768h256v256h256v256h512v-256h256v-256h256v-768h256v-1024h-256v-256h-256v-256h-1024v256h-256v256h-256z" />
<glyph unicode="&#xf5;" d="M0 512v1024h256v768h256v256h256v256h1024v-256h256v-512h-256v-512h256v-1024h-256v-256h-256v-256h-1024v256h-256v256h-256z" />
<glyph unicode="&#xf6;" d="M0 512v1024h256v768h256v256h1024v-256h256v-768h256v-1024h-256v-256h-256v-256h-1024v256h-256v256h-256z" />
<glyph unicode="&#xf7;" horiz-adv-x="1536" d="M0 1024v512h256v512h256v256h512v-256h256v-512h256v-768h-256v-512h-768v256h-256v512h-256z" />
<glyph unicode="&#xf8;" d="M0 512v1024h256v256h256v256h1024v-256h256v-256h256v-1024h-256v-256h-256v-256h-1024v256h-256v256h-256z" />
<glyph unicode="&#xf9;" d="M0 512v1280h256v768h256v256h512v-256h256v-256h256v-256h256v-256h256v-1536h-256v-256h-1280v256h-256v256h-256z" />
<glyph unicode="&#xfa;" d="M0 512v1280h256v256h256v256h256v256h256v256h512v-256h256v-768h256v-1536h-256v-256h-1280v256h-256v256h-256z" />
<glyph unicode="&#xfb;" d="M0 512v1280h256v512h256v256h256v256h512v-256h256v-256h256v-512h256v-1536h-256v-256h-1280v256h-256v256h-256z" />
<glyph unicode="&#xfc;" d="M0 512v1280h256v512h256v256h1024v-256h256v-512h256v-1536h-256v-256h-1280v256h-256v256h-256z" />
<glyph unicode="&#xfd;" d="M0 512v1280h256v256h256v256h256v256h256v256h512v-256h256v-768h256v-2048h-256v-256h-256v-256h-1024v256h-256v512h256v256h-256v256h-256z" />
<glyph unicode="&#xff;" d="M0 512v1280h256v512h256v256h1024v-256h256v-512h256v-2048h-256v-256h-256v-256h-1024v256h-256v512h256v256h-256v256h-256z" />
<glyph unicode="&#x152;" horiz-adv-x="2816" d="M0 512v1536h256v256h256v256h1792v-256h256v-256h256v-2048h-2304v256h-256v256h-256z" />
<glyph unicode="&#x153;" horiz-adv-x="3072" d="M0 512v1024h256v256h256v256h2048v-256h256v-256h256v-1536h-2560v256h-256v256h-256z" />
<glyph unicode="&#x178;" horiz-adv-x="2560" d="M0 1536v768h256v256h256v256h256v256h1024v-256h256v-256h256v-256h256v-768h-256v-256h-256v-256h-256v-1024h-768v256h-256v768h-256v256h-256v256h-256z" />
<glyph unicode="&#x2c6;" horiz-adv-x="1536" d="M0 1536v512h256v256h256v256h512v-256h256v-256h256v-768h-1280v256h-256z" />
<glyph unicode="&#x2dc;" horiz-adv-x="1792" d="M0 1536v512h256v256h256v256h1024v-256h256v-512h-256v-512h-1280v256h-256z" />
<glyph unicode="&#x2000;" horiz-adv-x="1792" />
<glyph unicode="&#x2001;" horiz-adv-x="3584" />
<glyph unicode="&#x2002;" horiz-adv-x="1792" />
<glyph unicode="&#x2003;" horiz-adv-x="3584" />
<glyph unicode="&#x2004;" horiz-adv-x="1194" />
<glyph unicode="&#x2005;" horiz-adv-x="896" />
<glyph unicode="&#x2006;" horiz-adv-x="597" />
<glyph unicode="&#x2007;" horiz-adv-x="597" />
<glyph unicode="&#x2008;" horiz-adv-x="448" />
<glyph unicode="&#x2009;" horiz-adv-x="716" />
<glyph unicode="&#x200a;" horiz-adv-x="199" />
<glyph unicode="&#x2010;" horiz-adv-x="1536" d="M0 1024v512h256v256h1024v-256h256v-768h-1280v256h-256z" />
<glyph unicode="&#x2011;" horiz-adv-x="1536" d="M0 1024v512h256v256h1024v-256h256v-768h-1280v256h-256z" />
<glyph unicode="&#x2012;" horiz-adv-x="1536" d="M0 1024v512h256v256h1024v-256h256v-768h-1280v256h-256z" />
<glyph unicode="&#x2013;" horiz-adv-x="1280" d="M0 1024v512h256v256h768v-256h256v-768h-1024v256h-256z" />
<glyph unicode="&#x2014;" d="M0 1024v512h256v256h1536v-256h256v-768h-1792v256h-256z" />
<glyph unicode="&#x2018;" horiz-adv-x="1024" d="M0 1536v768h256v256h512v-256h256v-1024h-768v256h-256z" />
<glyph unicode="&#x2019;" horiz-adv-x="1024" d="M0 1536v768h256v256h512v-256h256v-1024h-768v256h-256z" />
<glyph unicode="&#x201a;" horiz-adv-x="1024" d="M0 -256v768h256v256h512v-256h256v-1024h-768v256h-256z" />
<glyph unicode="&#x201c;" horiz-adv-x="1536" d="M0 1536v768h256v256h1024v-256h256v-1024h-1280v256h-256z" />
<glyph unicode="&#x201d;" horiz-adv-x="1536" d="M0 1536v768h256v256h1024v-256h256v-1024h-1280v256h-256z" />
<glyph unicode="&#x201e;" horiz-adv-x="1536" d="M0 -256v768h256v256h1024v-256h256v-1024h-1280v256h-256z" />
<glyph unicode="&#x2022;" horiz-adv-x="1280" d="M0 1024v768h256v256h768v-256h256v-768h-256v-256h-768v256h-256z" />
<glyph unicode="&#x2026;" d="M0 256v512h256v256h1536v-256h256v-768h-1792v256h-256z" />
<glyph unicode="&#x202f;" horiz-adv-x="716" />
<glyph unicode="&#x2039;" horiz-adv-x="1280" d="M0 768v512h256v256h256v256h512v-256h256v-1024v-256h-256h-512v256h-256v256h-256z" />
<glyph unicode="&#x203a;" horiz-adv-x="1280" d="M0 512v1024h256v256h512v-256h256v-256h256v-512h-256v-256h-256v-256h-512v256h-256z" />
<glyph unicode="&#x205f;" horiz-adv-x="896" />
<glyph unicode="&#x20ac;" d="M0 768v256v256v256v256h256v256h256v256h256v256h1024v-256h256v-256v-256h-256v-256h256v-256v-256h-256v-256h256v-256v-256v-256h-256h-256h-256h-256h-256v256h-256v256h-256v256h-256z" />
<glyph unicode="&#x2122;" horiz-adv-x="2816" d="M0 1792v512h256v256h1280v-256h512v256h512v-256h256v-1536h-768v256h-256v-256h-1280v256h-256v768h-256z" />
<glyph unicode="&#x25fc;" d="M0 0v2048h2048v-2048h-2048z" />
<glyph unicode="&#xfb01;" d="M0 1280v512h256v256h256v256h256v256h1024v-256h256v-2304h-1536v256h-256v1024h-256z" />
<glyph unicode="&#xfb02;" d="M0 1280v512h256v256h256v256h256v256h1024v-256h256v-2304h-1536v256h-256v1024h-256z" />
</font>
</defs>
</svg>
